<svg width="24" height="25" viewBox="0 0 24 25" fill="none" xmlns="http://www.w3.org/2000/svg">
<path d="M9.35416 22C10.0593 22.6224 10.9855 23 12 23C13.0144 23 13.9407 22.6224 14.6458 22M18 9C18 7.4087 17.3678 5.88258 16.2426 4.75736C15.1174 3.63214 13.5913 3 12 3C10.4087 3 8.88257 3.63214 7.75735 4.75736C6.63213 5.88258 5.99999 7.4087 5.99999 9C5.99999 12.0902 5.22046 14.206 4.34965 15.6054C3.61512 16.7859 3.24785 17.3761 3.26131 17.5408C3.27622 17.7231 3.31485 17.7926 3.46176 17.9016C3.59445 18 4.19258 18 5.38884 18H18.6111C19.8074 18 20.4055 18 20.5382 17.9016C20.6851 17.7926 20.7238 17.7231 20.7387 17.5408C20.7521 17.3761 20.3849 16.7859 19.6503 15.6054C18.7795 14.206 18 12.0902 18 9Z" stroke="black" stroke-width="2" stroke-linecap="round" stroke-linejoin="round"/>
<circle cx="17" cy="7" r="6.5" fill="black" stroke="white"/>
<path d="M17.8641 9.71971V5H16V5.83782H16.8937V9.71971H17.8641Z" fill="white"/>
</svg>
